<?xml version="1.0" standalone="no"?>
<!DOCTYPE svg PUBLIC "-//W3C//DTD SVG 20010904//EN"
        "http://www.w3.org/TR/2001/REC-SVG-20010904/DTD/svg10.dtd">
<svg version="1.0" xmlns="http://www.w3.org/2000/svg"
     width="2.000000pt" height="2.000000pt" viewBox="0 0 1018.000000 884.000000"
     preserveAspectRatio="xMidYMid meet">

    <g transform="translate(0.000000,884.000000) scale(0.100000,-0.100000)"
       fill="#000000" stroke="none">
        <path d="M8425 8184 c-316 -44 -527 -104 -750 -215 -286 -143 -477 -305 -638
-540 -32 -46 -64 -92 -71 -102 -13 -17 -21 -13 -123 66 -448 348 -990 593
-1558 706 -285 57 -390 66 -740 66 -397 0 -585 -21 -912 -101 -873 -213 -1648
-739 -2182 -1480 -43 -60 -78 -110 -77 -111 1 -1 49 13 106 32 164 52 284 68
474 63 l161 -4 75 89 c41 50 127 142 190 206 624 630 1412 996 2285 1061 681
50 1381 -106 1980 -441 114 -63 239 -140 274 -168 l24 -19 -85 -143 c-164
-277 -297 -518 -623 -1134 -125 -236 -240 -452 -255 -480 -15 -27 -47 -86 -70
-130 -157 -291 -325 -589 -496 -876 -454 -765 -881 -1275 -1204 -1438 -64 -33
-166 -67 -227 -76 -24 -4 -43 -10 -43 -14 0 -11 167 15 258 40 285 76 632 384
1033 919 299 398 574 830 1136 1780 640 1082 827 1366 1035 1566 290 279 754
452 1286 480 133 7 390 -3 411 -15 11 -7 -56 -131 -332 -611 -155 -270 -268
-473 -265 -476 2 -1 36 50 76 114 40 64 211 331 380 593 169 261 339 525 379
587 83 129 87 118 -52 150 -192 44 -291 54 -565 57 -146 2 -278 1 -295 -1z"/>
        <path d="M1615 6285 c-185 -34 -341 -119 -465 -252 -89 -95 -106 -125 -169
-295 -370 -992 -305 -2081 179 -3033 198 -390 454 -733 791 -1060 159 -154
281 -258 412 -349 538 -375 1146 -597 1827 -668 200 -21 611 -15 807 10 393
52 724 146 1076 306 435 198 796 439 1099 734 153 150 305 318 295 328 -2 2
-35 -9 -72 -26 -203 -91 -504 -179 -765 -224 -663 -115 -1403 -45 -2074 196
-374 134 -754 326 -1061 536 -514 352 -942 805 -1222 1292 -178 309 -308 637
-375 942 -20 89 -23 132 -23 323 0 203 2 228 27 330 33 139 87 286 145 395
108 201 204 308 328 366 l70 33 -30 11 c-125 49 -287 93 -408 109 -104 15
-305 12 -392 -4z"/>
        <path d="M8465 5693 c-295 -9 -539 -63 -714 -159 -167 -92 -434 -339 -706
-654 -45 -52 -209 -249 -364 -438 -154 -189 -336 -407 -404 -485 -68 -78 -210
-243 -316 -367 -276 -321 -455 -514 -552 -596 -218 -185 -385 -263 -684 -317
-169 -30 -553 -30 -725 0 -63 11 -116 19 -118 18 -3 -2 192 -128 318 -205 113
-70 273 -157 360 -197 52 -25 113 -53 135 -63 22 -11 96 -41 165 -68 363 -142
766 -236 1172 -273 192 -17 618 -7 783 20 358 58 667 168 892 318 68 45 272
208 303 242 3 4 57 53 120 111 200 181 322 301 838 817 276 278 502 510 502
517 0 22 -281 142 -445 191 -205 60 -310 77 -537 82 l-206 5 31 43 c18 23 113
148 212 276 163 211 421 555 710 948 59 78 104 148 102 155 -9 22 -439 73
-667 78 -69 2 -161 2 -205 1z m-3377 -3430 c-10 -2 -28 -2 -40 0 -13 2 -5 4
17 4 22 1 32 -1 23 -4z"/>
    </g>
</svg>
